<svg width="392" height="24" viewBox="0 0 392 24" fill="none" xmlns="http://www.w3.org/2000/svg">
<path d="M20.9055 0.408447L15.3561 15.5982L14.7602 12.5135C13.5721 9.27287 10.6548 6.29579 7.37195 4.92975L11.9855 22.6512H17.9809L26.9082 0.408447H20.9055Z" fill="#787878"/>
<path d="M25.6616 22.6698L29.204 0.389893H34.8704L31.3243 22.6698H25.6616Z" fill="#787878"/>
<path d="M51.8769 0.928099C50.254 0.302831 48.5311 -0.0118147 46.7954 8.09703e-05C41.1948 8.09703e-05 37.2503 3.02542 37.2174 7.3537C37.1845 10.5572 40.0323 12.3427 42.1819 13.4081C44.3753 14.4994 45.132 15.1973 45.1065 16.1736C45.1065 17.6584 43.3444 18.3489 41.7139 18.3489C39.8687 18.4069 38.0375 18.0055 36.3802 17.1796L35.6491 16.8269L34.8558 21.8159C36.1791 22.4358 38.6285 22.9741 41.1692 23.0038C47.1244 23.0038 50.9922 20.0156 51.0397 15.3903C51.0397 12.8513 49.5482 10.9358 46.2873 9.33594C44.3095 8.30399 43.0921 7.61725 43.1068 6.57416C43.1068 5.64614 44.134 4.65502 46.3531 4.65502C47.8114 4.62215 49.259 4.91487 50.5937 5.51251L51.1019 5.76493L51.8696 0.939235" fill="#787878"/>
<path d="M66.4121 0.412109H62.0252C60.6653 0.412109 59.649 0.805589 59.0531 2.26815L50.6449 22.6845H56.5964C56.5964 22.6845 57.5689 19.9376 57.7882 19.3437H65.0448C65.213 20.1195 65.7358 22.6845 65.7358 22.6845H70.9964L66.4084 0.412109H66.4121ZM59.4187 14.7704C59.8902 13.4897 61.6779 8.54156 61.6779 8.54156C61.645 8.60095 62.1422 7.25347 62.409 6.41825L62.7929 8.3411L64.1053 14.7704H59.4187Z" fill="#787878"/>
<path d="M10.2088 0.393555H1.06946L0.996338 0.853848C7.28054 2.46118 12.4278 5.93568 14.7602 12.5098L12.797 2.27186C12.4315 0.861275 11.4408 0.441812 10.2088 0.393555Z" fill="#787878"/>
<path d="M384.017 3.89608C383.386 3.1923 382.587 2.72312 381.716 2.36719C380.797 2.01126 379.838 1.8252 378.856 1.72004C378.568 1.68768 378.288 1.66341 377.993 1.63106C377.873 1.62297 377.745 1.66341 377.617 1.5987H369.075C368.931 2.3591 368.788 3.11141 368.644 3.87181C368.308 5.76472 367.965 7.64146 367.621 9.53437C367.317 11.225 367.006 12.8995 366.702 14.5821C366.574 15.3021 366.438 16.014 366.311 16.7339C366.279 16.9523 366.271 16.9523 366.071 16.9523H356.69C356.618 16.9523 356.546 16.9604 356.458 16.92C356.498 16.6773 356.546 16.4346 356.586 16.1919C356.738 15.3587 356.89 14.5336 357.042 13.7004C357.074 13.4901 357.082 13.4901 357.281 13.4901H362.731C363.026 13.4901 363.002 13.5224 363.058 13.2393C363.266 12.0583 363.474 10.8853 363.682 9.71233C363.714 9.55864 363.714 9.55864 363.554 9.55864C363.194 9.55864 362.819 9.55864 362.451 9.55864H358.04C357.793 9.55864 357.793 9.55864 357.833 9.29978C358.016 8.33714 358.192 7.36642 358.368 6.39569C358.432 6.0883 358.368 6.12066 358.696 6.12066C360.533 6.12066 362.379 6.12066 364.209 6.12066C364.265 6.12066 364.329 6.12066 364.385 6.12066C364.505 6.12874 364.537 6.08021 364.561 5.96696C364.656 5.4007 364.76 4.83445 364.864 4.27628C365 3.45925 365.16 2.64223 365.312 1.80902C365.32 1.74431 365.336 1.67959 365.336 1.5987H352.902C352.894 1.90609 352.815 2.2054 352.767 2.50471C352.591 3.47543 352.415 4.43807 352.231 5.40879C352.024 6.54939 351.816 7.68999 351.608 8.8225C351.368 10.1815 351.113 11.5405 350.873 12.9076C350.681 13.9431 350.497 14.9623 350.306 15.9897C350.274 16.1515 350.274 16.1515 350.098 16.1515H345.951C345.767 16.1515 345.751 16.1434 345.791 15.9654C346.055 14.5498 346.31 13.1341 346.566 11.7266C346.814 10.3676 347.069 9.00856 347.309 7.65763C347.573 6.21773 347.845 4.794 348.108 3.35409C348.204 2.82019 348.3 2.27012 348.404 1.72813C348.412 1.68768 348.412 1.63106 348.412 1.59061H341.916C341.612 3.28129 341.3 4.97196 340.989 6.66264C340.701 8.24007 340.421 9.82559 340.134 11.403C339.854 12.9319 339.574 14.4527 339.295 15.9816C339.263 16.1434 339.263 16.1434 339.103 16.1434H335.052C334.868 16.1434 334.868 16.1434 334.9 15.9573C335.236 14.121 335.563 12.309 335.907 10.4727C336.25 8.596 336.594 6.71118 336.945 4.83445C337.129 3.83136 337.313 2.82019 337.489 1.81711C337.513 1.7524 337.529 1.66341 337.513 1.58252H331.009C331.001 1.88183 330.913 2.18113 330.865 2.46426C330.697 3.36218 330.537 4.24392 330.369 5.14184C330.162 6.29053 329.954 7.42304 329.746 8.55555C329.53 9.76087 329.307 10.9662 329.091 12.1634C328.859 13.4334 328.635 14.6954 328.404 15.9573C328.348 16.2405 328.284 16.5236 328.252 16.8067C328.228 16.92 328.18 16.9442 328.076 16.9361C328.028 16.9361 327.996 16.9361 327.956 16.9361C324.84 16.9361 321.732 16.9361 318.615 16.9361C318.344 16.9361 318.312 17.0009 318.376 16.653C318.559 15.658 318.735 14.6873 318.911 13.7004C318.943 13.4901 318.943 13.4901 319.175 13.4901H324.6C324.656 13.4901 324.72 13.482 324.776 13.4901C324.864 13.4901 324.92 13.4577 324.928 13.3606C325.144 12.1068 325.375 10.8691 325.591 9.62335C325.591 9.62335 325.591 9.61526 325.591 9.60717C325.503 9.55864 325.423 9.5829 325.343 9.5829H319.934C319.662 9.5829 319.662 9.5829 319.702 9.33213C319.886 8.30478 320.078 7.28552 320.261 6.26626C320.269 6.15301 320.317 6.11257 320.437 6.11257C320.693 6.12066 320.933 6.11257 321.18 6.11257H326.174C326.222 6.11257 326.27 6.11257 326.326 6.11257C326.438 6.12066 326.478 6.07212 326.502 5.95887C326.566 5.56249 326.646 5.15802 326.718 4.75355C326.893 3.76665 327.069 2.77166 327.245 1.77666C327.253 1.72004 327.253 1.65532 327.269 1.59061H288.571C288.523 1.9789 288.443 2.35101 288.371 2.73121C288.124 4.11449 287.876 5.49777 287.628 6.86488C287.412 8.07019 287.189 9.2836 286.973 10.4889C286.797 11.4758 286.613 12.4465 286.438 13.4334C286.43 13.4982 286.414 13.5629 286.406 13.6357C286.342 13.6357 286.342 13.5791 286.318 13.5467C285.543 11.3787 284.752 9.2027 283.977 7.02666C283.345 5.27936 282.706 3.53206 282.075 1.78475C282.051 1.72813 282.043 1.66341 282.019 1.60679H275.275C275.187 2.11642 275.075 2.62605 274.987 3.13568C274.684 4.794 274.388 6.45232 274.084 8.11064C273.781 9.77705 273.469 11.4435 273.165 13.1018C272.886 14.6873 272.598 16.289 272.302 17.8826C272.111 18.9747 271.911 20.0667 271.703 21.1588C271.687 21.2235 271.679 21.2882 271.623 21.3368C271.623 21.4015 271.599 21.5066 271.735 21.4662C271.759 21.4581 271.791 21.4662 271.823 21.4662H278.127C278.096 21.3529 278.127 21.2478 278.135 21.1426C278.351 19.9049 278.575 18.6673 278.791 17.4296C279.022 16.0948 279.262 14.752 279.502 13.4173C279.726 12.1715 279.941 10.9177 280.149 9.65571C280.181 9.47774 280.221 9.29978 280.245 9.11372C280.317 9.11372 280.309 9.17035 280.317 9.2027C280.613 10.044 280.892 10.8934 281.196 11.7509C281.891 13.8136 282.602 15.8845 283.313 17.9635C283.673 19.0475 284.04 20.1234 284.416 21.2154C284.44 21.2963 284.48 21.3691 284.48 21.4581H307.58C307.588 21.1507 307.668 20.8514 307.724 20.5521C307.956 19.2659 308.196 17.9797 308.419 16.6935C308.659 15.4234 308.891 14.1453 309.115 12.8753C309.322 11.7509 309.53 10.6183 309.73 9.50201C309.93 8.42613 310.129 7.36642 310.321 6.29862C310.353 6.12066 310.345 6.12066 310.537 6.12066H313.717C313.749 6.12066 313.781 6.12066 313.805 6.12066C313.893 6.11257 313.925 6.15301 313.917 6.23391C313.869 6.44423 313.845 6.65455 313.805 6.85679C313.501 8.53938 313.19 10.2301 312.878 11.9126C312.582 13.571 312.279 15.2293 311.975 16.8876C311.767 18.012 311.56 19.1445 311.36 20.2851C311.288 20.6815 311.216 21.0698 311.144 21.4662H371.792C371.8 21.1588 371.88 20.8676 371.936 20.5683C372.112 19.5814 372.287 18.5864 372.455 17.5914C372.703 16.2324 372.959 14.8734 373.206 13.5143C373.302 12.9804 373.39 12.4546 373.494 11.9288C373.558 11.9288 373.558 11.9935 373.566 12.0421C374.005 13.5224 374.437 15.019 374.876 16.4993C375.356 18.1253 375.827 19.7512 376.307 21.3772C376.307 21.4015 376.315 21.4338 376.315 21.45H382.771C382.555 20.8433 382.323 20.2123 382.092 19.6056C381.373 17.6561 380.645 15.7227 379.926 13.7894C379.838 13.5548 379.838 13.5548 380.078 13.5062C380.693 13.3849 381.277 13.2393 381.852 12.9885C383.402 12.2928 384.417 11.1199 384.896 9.46156C385.056 8.87913 385.136 8.28052 385.16 7.66572C385.184 7.06711 385.152 6.49277 385.024 5.91842C384.872 5.15802 384.529 4.4866 384.017 3.89608ZM303.705 7.26935C303.529 8.26434 303.345 9.26742 303.154 10.2624C302.946 11.3949 302.738 12.5193 302.53 13.6599C302.347 14.6873 302.155 15.7308 301.971 16.7582C301.939 16.9442 301.939 16.9523 301.739 16.9523H292.311C292.255 16.9523 292.199 16.9604 292.127 16.92C292.279 16.1191 292.422 15.3344 292.566 14.5498C292.622 14.2586 292.662 13.9835 292.718 13.7004C292.75 13.4901 292.75 13.4901 292.966 13.4901H298.631C298.919 13.4901 298.919 13.4901 298.967 13.1989C299.166 12.1149 299.35 11.0309 299.542 9.94693C299.566 9.85794 299.574 9.76896 299.598 9.67189C299.606 9.54246 299.606 9.54246 299.47 9.52628H293.781C293.517 9.52628 293.517 9.52628 293.565 9.27551C293.725 8.29669 293.893 7.31788 294.069 6.33098C294.1 6.11257 294.1 6.11257 294.332 6.11257H303.713C303.889 6.11257 303.897 6.12066 303.865 6.29053C303.825 6.63029 303.761 6.94577 303.705 7.26935ZM378.656 9.16226C378.408 9.79323 377.961 10.2381 377.353 10.5213C376.914 10.7316 376.434 10.8287 375.947 10.8853C375.556 10.9419 375.156 10.9257 374.764 10.9419H373.886C373.67 10.9338 373.67 10.9338 373.71 10.7316C373.782 10.3029 373.862 9.86603 373.941 9.4373C374.157 8.28052 374.365 7.12374 374.581 5.96696C374.637 5.63529 374.637 5.63529 374.964 5.63529C375.42 5.63529 375.867 5.63529 376.315 5.68383C376.746 5.73237 377.17 5.80517 377.569 5.97505C378.352 6.3148 378.824 7.03475 378.824 7.90032C378.856 8.32096 378.824 8.7497 378.656 9.16226ZM388.62 15.658C387.11 15.925 386.055 17.373 386.271 18.918C386.439 20.1153 387.11 20.8999 388.212 21.3125C388.34 21.3691 388.484 21.3772 388.604 21.4581H389.619C389.859 21.3691 390.098 21.3287 390.314 21.2154C391.153 20.819 391.704 20.1557 391.944 19.2497C391.968 19.1364 391.944 19.0151 392 18.918V18.1495C391.936 18.0282 391.952 17.8826 391.92 17.7532C391.521 16.3133 390.122 15.3992 388.62 15.658ZM389.131 20.9566C387.965 20.9566 386.766 19.9939 386.75 18.5459C386.75 17.2031 387.813 16.1353 389.139 16.1434C390.506 16.1434 391.545 17.3163 391.497 18.5459C391.552 19.7836 390.45 20.9727 389.131 20.9566ZM389.906 18.6106C390.482 18.3922 390.626 17.648 390.202 17.2031C390.026 17.0251 389.827 16.9685 389.603 16.9685C389.131 16.9604 388.66 17.017 388.204 17.0251C387.909 17.0332 387.909 17.0332 387.925 17.3487C387.925 17.373 387.933 17.4053 387.933 17.4215C387.957 17.8988 387.989 18.3599 388.005 18.8291C388.013 19.2093 388.029 19.5733 388.053 19.9211C388.061 20.1881 388.077 20.1719 388.316 20.1638C388.492 20.1638 388.492 20.1395 388.492 19.9777C388.484 19.6784 388.46 19.3791 388.444 19.0798C388.444 18.9908 388.388 18.8857 388.452 18.8129C388.508 18.732 388.62 18.7805 388.7 18.7563C389.059 18.6834 389.347 18.7886 389.579 19.096C389.787 19.371 389.97 19.6461 390.178 19.9292C390.21 19.9858 390.242 20.0586 390.306 20.0586C390.458 20.0586 390.626 20.1072 390.785 19.9939C390.434 19.5247 390.186 19.0232 389.699 18.6673C389.779 18.6511 389.843 18.6349 389.906 18.6106ZM389.411 18.3599C389.147 18.3841 388.892 18.368 388.636 18.4084H388.572C388.412 18.4084 388.42 18.4003 388.396 18.2466C388.372 18.0363 388.396 17.826 388.364 17.6076C388.332 17.4215 388.356 17.4134 388.556 17.3972C388.796 17.3891 389.028 17.3972 389.251 17.3487C389.379 17.3244 389.499 17.3487 389.635 17.3972C389.843 17.4377 389.97 17.6156 389.986 17.8179C389.994 18.0282 389.914 18.1819 389.739 18.2709C389.635 18.3194 389.523 18.3356 389.411 18.3599Z" fill="#787878"/>
<path d="M145.733 10.7263C145.205 10.7263 144.784 11.3318 144.784 12.2545C144.784 12.8216 144.989 13.1772 145.43 13.1772C146.085 13.1772 146.398 12.3314 146.398 11.7163C146.389 11.0147 146.173 10.7263 145.733 10.7263Z" fill="#787878"/>
<path d="M148.473 17.291C148.415 17.2621 148.356 17.2429 148.297 17.2429C148.229 17.2429 148.17 17.2621 148.111 17.291C148.052 17.3198 148.004 17.3679 147.974 17.4255C147.935 17.4832 147.925 17.5505 147.925 17.6082C147.925 17.6754 147.945 17.7331 147.974 17.7908C148.004 17.8484 148.052 17.8965 148.111 17.9253C148.17 17.9542 148.229 17.9734 148.297 17.9734C148.356 17.9734 148.424 17.9542 148.473 17.9253C148.532 17.8965 148.571 17.8484 148.61 17.7908C148.64 17.7331 148.659 17.6754 148.659 17.6082C148.659 17.5505 148.64 17.4928 148.61 17.4255C148.581 17.3679 148.532 17.3198 148.473 17.291ZM148.385 17.8004L148.356 17.7427C148.326 17.6947 148.307 17.6658 148.287 17.6562C148.278 17.6466 148.258 17.637 148.238 17.637H148.199V17.8004H148.131V17.4159H148.268C148.317 17.4159 148.346 17.4159 148.366 17.4255C148.385 17.4351 148.405 17.4448 148.415 17.464C148.434 17.4832 148.434 17.5024 148.434 17.5216C148.434 17.5505 148.424 17.5697 148.405 17.5985C148.385 17.6178 148.356 17.637 148.326 17.637C148.336 17.6466 148.346 17.6562 148.356 17.6562C148.375 17.6754 148.395 17.6947 148.415 17.7331L148.464 17.81H148.385V17.8004Z" fill="#787878"/>
<path d="M148.366 17.5311C148.366 17.5119 148.366 17.5119 148.356 17.4927C148.346 17.4831 148.346 17.4735 148.326 17.4735C148.307 17.4735 148.297 17.4639 148.258 17.4639H148.18V17.5792H148.258C148.297 17.5792 148.317 17.5792 148.336 17.56C148.366 17.56 148.366 17.5408 148.366 17.5311Z" fill="#787878"/>
<path d="M138.667 12.8985C138.667 13.0715 138.765 13.3502 139.137 13.3502C139.871 13.3502 140.018 12.4179 139.998 12.2161C139.959 12.2065 139.939 12.1873 139.734 12.1873C138.843 12.1873 138.667 12.5717 138.667 12.8985Z" fill="#787878"/>
<path d="M138.08 0.269287C135.154 0.269287 132.482 1.36498 130.466 3.1527C128.45 1.36498 125.778 0.269287 122.861 0.269287H122.793C116.559 0.307733 111.509 5.28642 111.509 11.4185C111.509 17.5697 116.598 22.5677 122.861 22.5677C125.788 22.5677 128.45 21.4816 130.466 19.6842C130.045 19.3094 129.663 18.8961 129.301 18.4636H131.64C131.288 18.8865 130.906 19.2902 130.485 19.6554C130.476 19.665 130.466 19.665 130.456 19.6746C132.472 21.4623 135.134 22.558 138.07 22.558C144.343 22.558 149.413 17.5601 149.413 11.4089C149.432 5.25759 144.353 0.269287 138.08 0.269287ZM129.438 4.29645H131.591C131.904 4.6809 132.208 5.07497 132.472 5.48826H128.626C128.871 5.09419 129.145 4.69052 129.438 4.29645ZM127.96 6.67046H133.128C133.314 7.05491 133.48 7.45859 133.617 7.86227H127.344C127.403 7.74693 127.628 7.28558 127.96 6.67046ZM116.148 14.2538L116.833 9.99599L115.277 14.2538H114.445L114.337 9.99599L113.603 14.2538H112.439L113.408 8.60234H115.169L115.238 12.072L116.422 8.60234H118.33L117.381 14.2538H116.148ZM120.268 14.2442L120.307 13.7925C120.288 13.7925 119.916 14.3403 119.064 14.3403C118.624 14.3403 117.9 14.1 117.9 13.062C117.9 11.7453 118.996 11.3031 120.043 11.3031C120.209 11.3031 120.562 11.332 120.562 11.332C120.562 11.332 120.601 11.2455 120.601 11.034C120.601 10.6688 120.268 10.6207 119.818 10.6207C119.025 10.6207 118.506 10.8322 118.506 10.8322L118.683 9.80376C118.683 9.80376 119.319 9.54426 120.141 9.54426C120.571 9.54426 121.805 9.59231 121.805 10.9763L121.325 14.2442H120.268ZM124.76 12.8121C124.76 14.3884 123.204 14.3211 122.93 14.3211C121.922 14.3211 121.599 14.1769 121.579 14.1769L121.736 13.1389C121.736 13.1293 122.245 13.3215 122.813 13.3215C123.136 13.3215 123.556 13.2927 123.556 12.9082C123.556 12.3316 122.049 12.4757 122.049 11.1109C122.049 9.90949 122.95 9.56348 123.85 9.56348C124.535 9.56348 124.966 9.65959 124.966 9.65959L124.819 10.7072C124.819 10.7072 124.163 10.6592 123.997 10.6592C123.566 10.6592 123.331 10.7457 123.331 11.0436C123.321 11.6299 124.76 11.332 124.76 12.8121ZM126.629 13.2254C126.737 13.2254 126.854 13.187 126.943 13.187L126.786 14.1962C126.659 14.225 126.316 14.3499 125.876 14.3499C125.318 14.3499 124.917 14.0424 124.917 13.3407C124.917 12.8698 125.602 8.9868 125.631 8.96757H126.835L126.708 9.65959H127.305L127.148 10.7745H126.512L126.169 12.8313C126.16 13.0043 126.209 13.2254 126.629 13.2254ZM129.291 9.53465C130.622 9.53465 131.014 10.4862 131.014 11.2647C131.014 11.5819 130.857 12.3508 130.857 12.3508H128.401C128.401 12.3508 128.176 13.3023 129.468 13.3023C130.074 13.3023 130.75 13.014 130.75 13.014L130.534 14.1577C130.534 14.1577 130.143 14.3499 129.262 14.3499C128.303 14.3499 127.177 13.9463 127.177 12.2739C127.177 10.8226 128.068 9.53465 129.291 9.53465ZM132.492 17.3199H128.469C128.225 16.9354 128 16.5413 127.804 16.128H133.157C132.952 16.5413 132.736 16.9354 132.492 17.3199ZM132.218 14.2634H130.975L131.728 9.65959H132.854L132.746 10.3228C132.746 10.3228 133.147 9.60192 133.686 9.60192C133.842 9.60192 133.92 9.61154 133.92 9.61154C133.764 9.93832 133.617 10.2267 133.47 10.986C132.638 10.7072 132.57 12.3027 132.218 14.2634ZM136.945 14.1962C136.945 14.1962 136.299 14.3596 135.888 14.3596C134.449 14.3596 133.715 13.3792 133.715 11.9087C133.715 9.67882 135.075 8.48701 136.465 8.48701C137.101 8.48701 137.825 8.77535 137.825 8.77535L137.63 10.0344C137.63 10.0344 137.13 9.69804 136.524 9.69804C135.702 9.69804 134.968 10.4669 134.968 11.8702C134.968 12.5526 135.31 13.2062 136.171 13.2062C136.582 13.2062 137.17 12.9178 137.17 12.9178L136.945 14.1962ZM139.851 14.2538L139.89 13.8021C139.871 13.8021 139.499 14.3499 138.647 14.3499C138.197 14.3499 137.483 14.1097 137.483 13.0716C137.483 11.7549 138.579 11.3127 139.626 11.3127C139.792 11.3127 140.145 11.3416 140.145 11.3416C140.145 11.3416 140.184 11.2551 140.184 11.0436C140.184 10.6784 139.851 10.6303 139.401 10.6303C138.608 10.6303 138.09 10.8418 138.09 10.8418L138.266 9.81337C138.266 9.81337 138.902 9.55387 139.734 9.55387C140.164 9.55387 141.397 9.60192 141.397 10.986L140.928 14.2538C140.918 14.2538 139.851 14.2538 139.851 14.2538ZM142.357 14.2634H141.114L141.867 9.65959H142.993L142.885 10.3228C142.885 10.3228 143.286 9.60192 143.825 9.60192C143.981 9.60192 144.059 9.61154 144.059 9.61154C143.893 9.93832 143.756 10.2267 143.609 10.986C142.777 10.7072 142.719 12.3027 142.357 14.2634ZM146.066 14.2538L146.115 13.8309C146.115 13.8309 145.713 14.3307 144.989 14.3307C143.991 14.3307 143.492 13.3792 143.492 12.4084C143.492 10.8995 144.412 9.59231 145.518 9.59231C146.232 9.59231 146.682 10.2074 146.682 10.2074L146.947 8.62156H148.16L147.23 14.2634H146.066V14.2538ZM148.454 14.1C148.424 14.1577 148.375 14.1962 148.317 14.2346C148.258 14.2634 148.199 14.2827 148.131 14.2827C148.072 14.2827 148.004 14.2634 147.945 14.2346C147.886 14.2058 147.847 14.1577 147.808 14.1C147.769 14.0424 147.759 13.9751 147.759 13.9174C147.759 13.8501 147.769 13.7925 147.808 13.7348C147.847 13.6771 147.886 13.6291 147.945 13.6003C148.004 13.5714 148.062 13.5522 148.121 13.5522C148.18 13.5522 148.248 13.5714 148.297 13.6003C148.356 13.6291 148.405 13.6771 148.434 13.7348C148.473 13.7925 148.483 13.8501 148.483 13.9174C148.503 13.9751 148.493 14.0328 148.454 14.1Z" fill="#787878"/>
<path d="M119.074 12.8985C119.074 13.0715 119.172 13.3502 119.544 13.3502C120.268 13.3502 120.415 12.4179 120.395 12.2161C120.366 12.2065 120.346 12.1873 120.131 12.1873C119.26 12.1873 119.074 12.5717 119.074 12.8985Z" fill="#787878"/>
<path d="M148.287 13.6578C148.238 13.629 148.189 13.6194 148.141 13.6194C148.092 13.6194 148.043 13.629 147.994 13.6578C147.945 13.6867 147.906 13.7251 147.876 13.7732C147.847 13.8212 147.837 13.8693 147.837 13.9269C147.837 13.975 147.857 14.0231 147.876 14.0807C147.906 14.1288 147.945 14.1672 147.994 14.1865C148.043 14.2153 148.092 14.2249 148.15 14.2249C148.199 14.2249 148.248 14.2057 148.297 14.1865C148.346 14.1576 148.385 14.1192 148.415 14.0807C148.444 14.0327 148.454 13.9846 148.454 13.9269C148.454 13.8789 148.434 13.8212 148.415 13.7732C148.375 13.7155 148.336 13.6771 148.287 13.6578ZM148.229 14.1096L148.189 14.0519C148.16 14.0038 148.141 13.975 148.121 13.9654C148.111 13.9558 148.092 13.9462 148.072 13.9462H148.033V14.1096H147.964V13.7251H148.101C148.15 13.7251 148.18 13.7251 148.199 13.7347C148.219 13.7443 148.238 13.7539 148.248 13.7732C148.258 13.7924 148.268 13.8116 148.268 13.8308C148.268 13.8597 148.258 13.8789 148.238 13.9077C148.219 13.9269 148.189 13.9366 148.15 13.9366C148.17 13.9462 148.18 13.9558 148.189 13.9558C148.209 13.975 148.229 13.9942 148.248 14.0327L148.297 14.1096H148.229Z" fill="#787878"/>
<path d="M148.219 13.8405C148.219 13.8213 148.219 13.8213 148.209 13.802C148.209 13.7924 148.19 13.7828 148.18 13.7828C148.17 13.7828 148.15 13.7732 148.121 13.7732H148.052V13.8885H148.131C148.17 13.8885 148.19 13.8885 148.209 13.8693C148.209 13.8693 148.219 13.8501 148.219 13.8405Z" fill="#787878"/>
<path d="M129.291 10.5918C128.636 10.5918 128.508 11.3319 128.508 11.4088H129.849C129.849 11.3511 129.976 10.5918 129.291 10.5918Z" fill="#787878"/>
<path d="M228.93 17.6758C228.908 17.6543 228.882 17.6543 228.838 17.6543H228.699V17.9724H228.79V17.8607H228.845L228.889 17.9724H228.989L228.941 17.8349C228.956 17.8254 228.969 17.812 228.977 17.7961C228.986 17.7803 228.99 17.7625 228.989 17.7446L228.93 17.6758ZM228.882 17.7919H228.79V17.7037H228.838L228.882 17.7231L228.904 17.7446L228.882 17.7919Z" fill="#787878"/>
<path d="M228.838 17.4541C228.791 17.4538 228.743 17.4629 228.699 17.4809C228.654 17.4988 228.614 17.5252 228.58 17.5586C228.546 17.592 228.519 17.6317 228.501 17.6754C228.483 17.7191 228.474 17.7659 228.474 17.8131C228.472 17.8617 228.48 17.9102 228.498 17.9557C228.515 18.0013 228.542 18.0429 228.575 18.0783C228.609 18.1137 228.65 18.1421 228.695 18.1619C228.74 18.1817 228.789 18.1925 228.838 18.1936C228.938 18.1902 229.032 18.1484 229.101 18.0772C229.17 18.0061 229.207 17.9112 229.205 17.8131C229.206 17.7657 229.196 17.7187 229.178 17.6749C229.16 17.6311 229.132 17.5913 229.098 17.5579C229.064 17.5244 229.024 17.4981 228.979 17.4802C228.934 17.4624 228.887 17.4536 228.838 17.4541ZM228.838 18.099C228.76 18.0984 228.685 18.0674 228.63 18.0126C228.575 17.9578 228.544 17.8838 228.544 17.8066C228.55 17.7337 228.584 17.6658 228.639 17.6163C228.694 17.5668 228.765 17.5394 228.84 17.5394C228.914 17.5394 228.986 17.5668 229.04 17.6163C229.095 17.6658 229.129 17.7337 229.135 17.8066C229.135 17.8848 229.104 17.9598 229.049 18.0157C228.993 18.0715 228.918 18.1037 228.838 18.1054V18.099Z" fill="#787878"/>
<path d="M223.856 10.5693C223.125 10.5693 222.669 11.4291 222.669 12.1922C222.669 12.822 222.992 13.2498 223.489 13.2498C223.813 13.2498 224.494 12.8199 224.612 12.1019C224.649 11.9086 224.663 11.7117 224.655 11.5151C224.655 11.0186 224.452 10.5693 223.856 10.5693Z" fill="#787878"/>
<path d="M203.285 12.865C203.28 12.9316 203.29 12.9984 203.313 13.061C203.337 13.1236 203.374 13.1804 203.421 13.2276C203.469 13.2748 203.527 13.3112 203.591 13.3343C203.654 13.3574 203.722 13.3667 203.79 13.3616C204.386 13.3616 204.816 12.865 204.842 12.1664C204.736 12.1507 204.628 12.1435 204.521 12.1449C203.698 12.1449 203.285 12.3943 203.285 12.865Z" fill="#787878"/>
<path d="M226.277 13.8066V13.8754H226.321H226.369V13.826V13.8066H226.299H226.277Z" fill="#787878"/>
<path d="M226.321 13.6303C226.283 13.6283 226.246 13.6337 226.21 13.6463C226.175 13.659 226.142 13.6785 226.114 13.7038C226.087 13.729 226.064 13.7595 226.049 13.7934C226.033 13.8273 226.025 13.864 226.024 13.9011C226.027 13.9776 226.059 14.0502 226.114 14.1041C226.17 14.158 226.243 14.1892 226.321 14.1913C226.359 14.1902 226.395 14.1818 226.429 14.1666C226.463 14.1513 226.494 14.1296 226.519 14.1026C226.545 14.0755 226.564 14.0438 226.577 14.0092C226.59 13.9747 226.596 13.9379 226.594 13.9011C226.596 13.8653 226.59 13.8294 226.577 13.7959C226.564 13.7623 226.544 13.7318 226.518 13.7063C226.493 13.6808 226.462 13.6609 226.428 13.6478C226.394 13.6347 226.358 13.6288 226.321 13.6303ZM226.461 14.0494H226.369L226.321 13.9377H226.277V14.0538H226.186V13.7378H226.321C226.369 13.7378 226.391 13.7378 226.413 13.7571L226.461 13.8259C226.461 13.8753 226.439 13.9162 226.391 13.9162L226.461 14.0494Z" fill="#787878"/>
<path d="M209.892 11.1088C209.892 10.7283 209.639 10.5005 209.204 10.5005C208.77 10.5005 208.425 10.8186 208.289 11.3603H209.892V11.1088Z" fill="#787878"/>
<path d="M218.339 2.55479e-07C215.443 -0.000600941 212.65 1.05988 210.505 2.97495C208.362 1.06151 205.573 0.0011221 202.68 2.55479e-07H202.61C200.716 0.00883111 198.853 0.470984 197.181 1.34663C195.509 2.22227 194.078 3.48513 193.012 5.02637C191.945 6.56761 191.276 8.341 191.061 10.1937C190.846 12.0463 191.091 13.9227 191.777 15.6611C192.462 17.3995 193.566 18.9477 194.995 20.1723C196.423 21.397 198.132 22.2613 199.976 22.6907C201.819 23.1202 203.74 23.1019 205.575 22.6376C207.409 22.1732 209.101 21.2766 210.505 20.025C210.075 19.6356 209.674 19.2153 209.306 18.7676H211.708C211.346 19.2077 210.949 19.6189 210.52 19.9971C210.509 19.9971 210.501 19.9971 210.49 20.0164C211.895 21.2678 213.588 22.1637 215.423 22.627C217.258 23.0902 219.18 23.1068 221.023 22.6753C222.866 22.2438 224.575 21.3772 226.001 20.1503C227.428 18.9233 228.53 17.373 229.213 15.633C229.895 13.893 230.137 12.0157 229.918 10.1631C229.698 8.31047 229.024 6.53824 227.954 4.99936C226.884 3.46048 225.449 2.20119 223.774 1.33019C222.098 0.459198 220.233 0.00266579 218.339 2.55479e-07ZM209.446 4.1529H211.662C211.988 4.54533 212.29 4.95585 212.568 5.38243H208.612C208.863 4.97617 209.145 4.56131 209.446 4.1529ZM207.918 6.60337H213.234C213.428 7.00274 213.596 7.41334 213.739 7.8329H207.291C207.352 7.71252 207.593 7.23748 207.927 6.60337H207.918ZM199.709 14.2815L200.582 9.80187L198.595 14.2815H197.268L197.05 9.82337L196.176 14.2815H194.851L195.973 8.45411H198.255L198.368 12.0546L199.969 8.45411H202.327L201.183 14.2815H199.709ZM206.315 11.7536L206.021 13.441L205.973 13.7312L205.933 13.972L205.911 14.131L205.89 14.2729H204.702L204.724 13.7764C204.359 14.1568 203.85 14.3352 203.195 14.3352C203.02 14.3453 202.844 14.319 202.68 14.258C202.515 14.197 202.366 14.1027 202.24 13.9811C202.115 13.8595 202.017 13.7134 201.953 13.5522C201.889 13.3911 201.86 13.2184 201.868 13.0455C201.868 11.8977 202.809 11.2249 204.425 11.2249C204.586 11.2249 204.791 11.2249 205.021 11.2464C205.054 11.1531 205.07 11.0549 205.069 10.9562C205.069 10.638 204.818 10.5263 204.13 10.5263C203.731 10.5241 203.333 10.5608 202.942 10.6359L202.739 10.7047L202.599 10.7262L202.818 9.6686C203.382 9.51126 203.965 9.42814 204.551 9.4214C205.809 9.4214 206.449 9.89215 206.449 10.7907C206.439 11.1149 206.397 11.4374 206.324 11.7536H206.315ZM206.702 12.2351C206.702 10.6165 207.776 9.4214 209.237 9.4214C210.424 9.4214 211.182 10.0985 211.182 11.141C211.177 11.5358 211.123 11.9286 211.02 12.3104H208.13V12.4673C208.13 13.0068 208.542 13.3013 209.385 13.3013C209.903 13.3047 210.417 13.2061 210.896 13.0111L210.678 14.174C210.194 14.3085 209.693 14.3765 209.191 14.3761C207.56 14.3718 206.719 13.6259 206.719 12.2351H206.702ZM212.579 17.5875H208.451C208.198 17.1912 207.969 16.7806 207.765 16.3579H213.269C213.064 16.7793 212.837 17.1897 212.588 17.5875H212.579ZM214.935 10.623C214.586 10.5794 214.235 10.5564 213.883 10.5542C213.4 10.5542 213.153 10.6853 213.153 10.9347C213.153 11.184 213.217 11.2249 213.835 11.4527C214.592 11.7429 214.887 12.1298 214.887 12.779C214.887 13.8537 214.158 14.3546 212.627 14.3546C212.352 14.3587 212.077 14.3429 211.804 14.3073C211.649 14.3073 211.509 14.2858 211.418 14.2858L211.164 14.217H211.097L211.278 13.1122C211.709 13.2411 212.155 13.3091 212.605 13.3142C213.18 13.3142 213.453 13.1766 213.453 12.8843C213.453 12.6693 213.363 12.592 212.767 12.3448C211.988 12.0524 211.643 11.6247 211.643 11.0379C211.643 10.1608 212.212 9.44075 213.861 9.4515C214.289 9.44965 214.717 9.47983 215.14 9.54178L214.935 10.623ZM217.402 14.2127C217.06 14.3151 216.705 14.3687 216.348 14.3718C215.618 14.3718 215.204 14.0107 215.204 13.3357C215.207 13.1912 215.224 13.0474 215.254 12.9058L215.343 12.435L215.413 12.0761L216.068 8.45411H217.507L217.304 9.52888H218.072L217.867 10.6767H217.116L216.749 12.6543C216.729 12.72 216.713 12.7867 216.701 12.8542C216.701 13.1035 216.863 13.2132 217.208 13.2132C217.338 13.2156 217.468 13.1997 217.594 13.1659L217.402 14.2127ZM220.758 10.8594C220.048 10.8594 219.845 11.3775 219.319 14.2815H217.858L218.749 9.53318H220.077L219.937 10.2511C220.374 9.6858 220.714 9.48589 221.192 9.48589H221.354C221.354 9.51168 221.398 9.51168 221.467 9.53318C221.524 9.53698 221.579 9.55313 221.629 9.58047L221.101 10.9282L220.941 10.8809C220.88 10.8809 220.815 10.8594 220.767 10.8594H220.758ZM223.328 14.4019C221.708 14.4019 221.046 13.4346 221.046 12.2179C221.046 10.5521 222.164 9.40421 223.904 9.40421C225.413 9.40421 226.212 10.3522 226.212 11.5408C226.216 11.7375 226.2 11.9342 226.164 12.1277C225.932 13.699 224.817 14.4019 223.328 14.4019ZM226.321 14.2858C226.219 14.2826 226.123 14.2415 226.051 14.1708C225.979 14.1001 225.938 14.0052 225.934 13.9053C225.938 13.8074 225.98 13.7148 226.053 13.6476C226.125 13.5804 226.221 13.544 226.321 13.5464C226.369 13.5458 226.417 13.5547 226.461 13.5725C226.506 13.5903 226.546 13.6168 226.58 13.6502C226.614 13.6837 226.641 13.7235 226.659 13.7673C226.677 13.8111 226.686 13.858 226.685 13.9053C226.686 14.0022 226.648 14.0953 226.58 14.1654C226.512 14.2355 226.419 14.2771 226.321 14.2815V14.2858Z" fill="#787878"/>
<line x1="91.5" y1="6" x2="91.5" y2="16" stroke="#787878"/>
<line x1="170.5" y1="6" x2="170.5" y2="16" stroke="#787878"/>
<line x1="250.5" y1="6" x2="250.5" y2="16" stroke="#787878"/>
</svg>
